<?xml version="1.0" standalone="no"?>
<!DOCTYPE svg PUBLIC "-//W3C//DTD SVG 20010904//EN"
 "http://www.w3.org/TR/2001/REC-SVG-20010904/DTD/svg10.dtd">
<svg version="1.0" xmlns="http://www.w3.org/2000/svg"
 width="1000.000000pt" height="1000.000000pt" viewBox="0 0 1000.000000 1000.000000"
 preserveAspectRatio="xMidYMid meet">
<metadata>
Created by potrace 1.16, written by Peter Selinger 2001-2019
</metadata>
<g transform="translate(0.000000,1000.000000) scale(0.100000,-0.100000)"
fill="#000000" stroke="none">
<path d="M9600 5635 l0 -35 -65 0 -65 0 0 -30 c0 -28 -3 -30 -35 -30 -33 0
-35 -2 -35 -35 l0 -35 -65 0 -65 0 0 -35 0 -35 -70 0 -70 0 0 -30 0 -30 -65 0
-65 0 0 -35 0 -35 -65 0 -65 0 0 -35 0 -35 -70 0 -70 0 0 -30 0 -30 -100 0
-100 0 0 -35 0 -35 -130 0 -130 0 0 -30 c0 -28 -3 -30 -35 -30 -33 0 -35 -2
-35 -35 l0 -35 -100 0 -100 0 0 -35 0 -35 -135 0 -135 0 0 -30 0 -30 -130 0
-130 0 0 -35 0 -35 -100 0 -100 0 0 -35 0 -35 -170 0 -170 0 0 -30 0 -30
-1630 0 -1630 0 0 30 0 30 -535 0 -535 0 0 35 0 35 -1035 0 -1035 0 0 35 c0
32 -2 35 -30 35 l-30 0 0 65 0 65 30 0 30 0 0 65 0 65 -30 0 c-28 0 -30 3 -30
35 l0 35 -100 0 -100 0 0 -35 c0 -33 -2 -35 -35 -35 l-35 0 0 -200 0 -200 35
0 35 0 0 -65 0 -65 30 0 c28 0 30 -3 30 -35 l0 -35 1100 0 1100 0 0 -30 0 -30
600 0 600 0 0 -35 0 -35 1635 0 1635 0 0 35 0 35 165 0 165 0 0 30 0 30 100 0
100 0 0 35 0 35 170 0 170 0 0 35 0 35 100 0 100 0 0 30 0 30 130 0 130 0 0
35 c0 33 2 35 35 35 33 0 35 2 35 35 l0 35 100 0 100 0 0 30 0 30 100 0 100 0
0 35 0 35 100 0 100 0 0 35 c0 33 2 35 35 35 32 0 35 2 35 30 l0 30 65 0 65 0
0 35 0 35 100 0 100 0 0 30 0 30 65 0 65 0 0 35 c0 33 2 35 35 35 33 0 35 2
35 35 l0 35 65 0 65 0 0 30 c0 28 3 30 35 30 l35 0 0 100 0 100 -35 0 c-33 0
-35 2 -35 35 l0 35 -65 0 -65 0 0 -35z"/>
</g>
</svg>
